<?xml version="1.0" encoding="UTF-8" standalone="yes"?>
<svg version="1.1" width="64" height="64" color-interpolation="linearRGB"
     xmlns:svg="http://www.w3.org/2000/svg" xmlns="http://www.w3.org/2000/svg">
 <g>
  <path style="fill:#d00700"
        d="M31.96 7.17C32.82 6.86 33.89 6.13 34.74 6.84C44.01 12.7 53.32 18.5 62.57 24.38L62.24 24.55C59.4 26.38 56.6 28.33 53.63 29.95C53.43 29.93 53.06 29.91 52.86 29.89C52.66 29.82 52.27 29.68 52.07 29.6C44.1 24.12 36.32 18.37 28.41 12.79C27.37 12.09 26.46 11.22 25.65 10.27L25.48 10.08C27.6 9.03 29.84 8.23 31.96 7.17
           M35.87 12.77C35.64 12.91 35.17 13.21 34.94 13.36C35.34 13.33 36.14 13.27 36.53 13.25C35.72 13.6 34.85 13.76 33.94 13.72C34.99 14.82 36.79 14.66 37.69 15.93C38.65 17.09 39.83 18.03 41.06 18.9C42.84 20.09 43.85 22.36 46.13 22.75C46.71 23.48 47.13 24.82 48.34 24.5C48.5 23.88 48.66 23.26 48.83 22.64C49.45 22.69 50.07 22.74 50.69 22.79C52.06 23.64 53.25 24.77 54.33 25.96C54.54 25.34 54.31 24.68 54.59 24.05C53.41 24.6 52.96 22.95 51.98 22.6C51.95 21.78 51.66 21.04 51.33 20.3C51.62 19.99 51.91 19.68 52.2 19.37C51.95 18.07 50.09 18.24 49.04 18.04C48.05 16.52 46.74 15.2 45.18 14.28C44.14 14.12 43.1 14.39 42.11 14.66C41.01 13.66 39.88 12.68 38.52 12.06C37.57 11.65 36.96 10.39 35.79 10.64C36.01 10.95 36.46 11.6 36.68 11.92C35.24 11.79 34.42 10.55 33.48 9.62C32.89 11.23 34.48 12.49 35.87 12.77z"
  />
  <path style="fill:#2c2c2c"
        d="M1.7 20.54C9.69 17.13 17.63 13.61 25.65 10.27C26.46 11.22 27.37 12.09 28.41 12.79C36.32 18.37 44.1 24.12 52.07 29.6C50.95 30.25 49.47 31.25 48.29 30.13C42.27 25.55 36.09 21.16 30.11 16.52C28.28 15.08 26.22 13.98 24.31 12.66C18.86 14.48 13.73 17.12 8.44 19.33C6.39 20.27 4.25 21.05 2.33 22.26C4.27 22.38 5.95 21.19 7.77 20.71C11.8 19.55 15.59 17.73 19.39 16C20.77 15.31 22.29 15.03 23.81 14.91C20.51 16.6 17.04 17.92 13.76 19.66C10.16 21.36 6.41 22.75 2.65 24.03C1.9 23.19 1.13 22.36 0.33 21.55C0.71 21.12 1.14 20.72 1.7 20.54z"
  />
  <path style="fill:#cfbf04"
        d="M35.87 12.77C34.48 12.49 32.89 11.23 33.48 9.62C34.42 10.55 35.24 11.79 36.68 11.92C36.46 11.6 36.01 10.95 35.79 10.64C36.96 10.39 37.57 11.65 38.52 12.06C39.88 12.68 41.01 13.66 42.11 14.66C43.1 14.39 44.14 14.12 45.18 14.28C46.74 15.2 48.05 16.52 49.04 18.04C50.09 18.24 51.95 18.07 52.2 19.37C50.7 19.23 49.23 18.95 47.76 18.65C47.67 18.43 47.47 17.98 47.38 17.76C46.86 16.74 46.07 15.92 45.15 15.25C44.42 15.3 43.7 15.35 42.98 15.4C43.1 15.52 43.32 15.76 43.43 15.88C43.79 16.53 44.4 16.96 45.12 17.13C45.56 17.55 46.01 17.96 46.45 18.37C46.72 18.52 47.28 18.82 47.55 18.97C49.18 20 50.12 21.87 51.98 22.6C52.96 22.95 53.41 24.6 54.59 24.05C54.31 24.68 54.54 25.34 54.33 25.96C53.25 24.77 52.06 23.64 50.69 22.79C48.96 21.84 47.59 20.28 45.66 19.68C45.42 19.53 44.92 19.23 44.68 19.08C43.97 18.84 43.25 18.67 42.52 18.51C43.77 20.12 45.18 21.77 47.3 22.18C47.65 22.95 48 23.72 48.34 24.5C47.13 24.82 46.71 23.48 46.13 22.75C43.85 22.36 42.84 20.09 41.06 18.9C39.83 18.03 38.65 17.09 37.69 15.93C36.79 14.66 34.99 14.82 33.94 13.72C34.85 13.76 35.72 13.6 36.53 13.25L37.19 13.02C37.1 13.36 36.92 14.04 36.83 14.37C37.27 14.32 38.16 14.22 38.6 14.17C38.54 14.52 38.41 15.23 38.35 15.58C38.99 15.12 39.56 14.55 40.06 13.94C39.21 13.55 38.4 13.06 37.68 12.46C37.08 12.56 36.47 12.66 35.87 12.77
           M39.58 16C40.33 16.12 40.95 15.89 41.44 15.32C41.15 14.53 39.47 15.28 39.58 16
           M40.7 16.25C40.59 16.51 40.37 17 40.26 17.26C40.46 17.25 40.87 17.25 41.07 17.25C41.89 17.95 43.01 18.08 44.04 17.92C44.57 19.56 45.69 16.97 44.17 17.56C43.99 17.15 43.7 16.81 43.33 16.54L43.22 16.58C42.65 15.46 41.56 15.9 40.7 16.25z"
  />
  <path style="fill:#0e0e0e"
        d="M24.31 12.66C26.22 13.98 28.28 15.08 30.11 16.52C36.09 21.16 42.27 25.55 48.29 30.13C49.47 31.25 50.95 30.25 52.07 29.6C52.27 29.68 52.66 29.82 52.86 29.89C51.38 31.04 49.87 32.22 48 32.66C46.77 31.65 45.67 30.36 44.15 29.81C39.61 32.13 35.35 35 30.92 37.53C30.26 37.13 29.62 36.72 28.98 36.29C30.04 35.59 31.44 36.36 32.47 35.51C36.29 33.03 40.62 31.21 44.06 28.19C43.37 26.37 40.94 26.06 39.2 25.75C38.71 25.45 38.21 25.15 37.72 24.86C33.59 26.96 29.58 29.31 25.47 31.46C24.02 32.25 23.04 30.4 22.15 29.57C22.22 29.42 22.35 29.11 22.42 28.95C23.08 29.51 23.72 30.1 24.46 30.57C26.23 30.34 27.62 29.04 29.18 28.28C32.05 26.58 35.39 25.5 37.74 23.04C36.52 22.07 35.19 21.1 33.53 21.26C32.62 21.02 31.66 20.21 30.69 20.7C27.61 22.29 24.51 23.82 21.41 25.37C20.56 25.77 19.78 26.44 18.8 26.51C17.95 26.12 17.07 25.85 16.17 26.28C16.52 26.07 17.23 25.63 17.59 25.41C16.43 25.12 16.22 23.95 15.93 23C16.76 23.72 17.51 24.58 18.48 25.14C20.72 24.66 22.62 23.23 24.7 22.31C26.94 21.05 29.52 20.31 31.41 18.5C30.41 17.55 29.28 16.53 27.78 16.94C26.64 16.49 25.44 15.55 24.18 16.19C21.09 17.5 18.08 19.01 15.01 20.36C14.7 20.18 14.07 19.84 13.76 19.66C17.04 17.92 20.51 16.6 23.81 14.91C22.29 15.03 20.77 15.31 19.39 16C15.59 17.73 11.8 19.55 7.77 20.71C5.95 21.19 4.27 22.38 2.33 22.26C4.25 21.05 6.39 20.27 8.44 19.33C13.73 17.12 18.86 14.48 24.31 12.66z"
  />
  <path style="fill:#292c01"
        d="M35.87 12.77C36.47 12.66 37.08 12.56 37.68 12.46C38.4 13.06 39.21 13.55 40.06 13.94C39.56 14.55 38.99 15.12 38.35 15.58C38.41 15.23 38.54 14.52 38.6 14.17C38.16 14.22 37.27 14.32 36.83 14.37C36.92 14.04 37.1 13.36 37.19 13.02L36.53 13.25C36.14 13.27 35.34 13.33 34.94 13.36C35.17 13.21 35.64 12.91 35.87 12.77z"
  />
  <path style="fill:#423401"
        d="M39.58 16C39.47 15.28 41.15 14.53 41.44 15.32C40.95 15.89 40.33 16.12 39.58 16z"
  />
  <path style="fill:#cb4d01"
        d="M42.98 15.4C43.7 15.35 44.42 15.3 45.15 15.25C46.07 15.92 46.86 16.74 47.38 17.76C47.15 17.92 46.69 18.22 46.45 18.37C46.01 17.96 45.56 17.55 45.12 17.13C45.05 16.25 44.29 15.72 43.43 15.88C43.32 15.76 43.1 15.52 42.98 15.4z"
  />
  <path style="fill:#bababa"
        d="M24.18 16.19C25.44 15.55 26.64 16.49 27.78 16.94C27.36 17.37 26.92 17.81 26.35 18.04C22.88 19.68 19.4 21.33 15.93 23C16.22 23.95 16.43 25.12 17.59 25.41C17.23 25.63 16.52 26.07 16.17 26.28C13.46 28.21 9.98 28.9 7.64 31.36C6.04 29.63 4.55 27.81 2.89 26.13C6.75 23.88 10.99 22.32 15.01 20.36C18.08 19.01 21.09 17.5 24.18 16.19z"
  />
  <path style="fill:#674801"
        d="M40.7 16.25C41.56 15.9 42.65 15.46 43.22 16.58C42.51 16.82 41.79 17.05 41.07 17.25C40.87 17.25 40.46 17.25 40.26 17.26C40.37 17 40.59 16.51 40.7 16.25z"
  />
  <path style="fill:#845900"
        d="M43.43 15.88C44.29 15.72 45.05 16.25 45.12 17.13C44.4 16.96 43.79 16.53 43.43 15.88z"
  />
  <path style="fill:#cb5601"
        d="M43.22 16.58L43.33 16.54C43.7 16.81 43.99 17.15 44.17 17.56L44.04 17.92C43.01 18.08 41.89 17.95 41.07 17.25C41.79 17.05 42.51 16.82 43.22 16.58z"
  />
  <path style="fill:#252525"
        d="M27.78 16.94C29.28 16.53 30.41 17.55 31.41 18.5C29.52 20.31 26.94 21.05 24.7 22.31C22.62 23.23 20.72 24.66 18.48 25.14C17.51 24.58 16.76 23.72 15.93 23C19.4 21.33 22.88 19.68 26.35 18.04C26.92 17.81 27.36 17.37 27.78 16.94z"
  />
  <path style="fill:#252525"
        d="M33.53 21.26C35.19 21.1 36.52 22.07 37.74 23.04C35.39 25.5 32.05 26.58 29.18 28.28C27.62 29.04 26.23 30.34 24.46 30.57C23.72 30.1 23.08 29.51 22.42 28.95C22.35 29.11 22.22 29.42 22.15 29.57L21.98 29.97C21.9 29.51 21.75 28.6 21.67 28.14C25.12 26.26 28.65 24.52 32.12 22.68C32.69 22.33 33.42 22.02 33.53 21.26z"
  />
  <path style="fill:#827602"
        d="M44.17 17.56C45.69 16.97 44.57 19.56 44.04 17.92L44.17 17.56z"
  />
  <path style="fill:#704c01"
        d="M46.45 18.37C46.69 18.22 47.15 17.92 47.38 17.76C47.47 17.98 47.67 18.43 47.76 18.65L47.55 18.97C47.28 18.82 46.72 18.52 46.45 18.37z"
  />
  <path style="fill:#d32b00"
        d="M47.76 18.65C49.23 18.95 50.7 19.23 52.2 19.37C51.91 19.68 51.62 19.99 51.33 20.3C51.66 21.04 51.95 21.78 51.98 22.6C50.12 21.87 49.18 20 47.55 18.97L47.76 18.65z"
  />
  <path style="fill:#d23a00"
        d="M42.52 18.51C43.25 18.67 43.97 18.84 44.68 19.08C43.82 19.84 45.14 20.33 45.66 19.68C47.59 20.28 48.96 21.84 50.69 22.79C50.07 22.74 49.45 22.69 48.83 22.64C48.66 23.26 48.5 23.88 48.34 24.5C48 23.72 47.65 22.95 47.3 22.18C45.18 21.77 43.77 20.12 42.52 18.51z"
  />
  <path style="fill:#7d4701"
        d="M45.66 19.68C45.14 20.33 43.82 19.84 44.68 19.08C44.92 19.23 45.42 19.53 45.66 19.68z"
  />
  <path style="fill:#060606"
        d="M2.65 24.03C6.41 22.75 10.16 21.36 13.76 19.66C14.07 19.84 14.7 20.18 15.01 20.36C10.99 22.32 6.75 23.88 2.89 26.13C4.55 27.81 6.04 29.63 7.64 31.36C7.83 31.55 8.22 31.93 8.4 32.11C9.9 34.15 11.56 36.12 13.57 37.68C14.89 39.35 16.65 40.61 17.82 42.4C19.65 44.77 21.82 46.85 23.75 49.14C24.27 49.67 24.71 50.57 25.59 50.34L24.61 49.71L25.17 49.48C25.36 48.85 25.33 48.17 25.06 47.46C25.39 47.67 26.05 48.1 26.38 48.32C27.15 47.9 27.93 47.48 28.68 47.02C40.04 39.72 51.39 32.43 62.75 25.15C62.36 27.9 61.33 30.5 60.75 33.21C60.61 34.48 59.31 34.98 58.41 35.65C48.35 42.59 38.33 49.59 28.25 56.5C27.44 57.18 26.24 57.18 25.63 56.24C18.16 47.99 10.82 39.61 3.41 31.3C2.55 30.48 2.43 29.26 2.09 28.18C1.44 25.99 0.85 23.78 0.33 21.55C1.13 22.36 1.9 23.19 2.65 24.03z"
  />
  <path style="fill:#c3c3c3"
        d="M30.69 20.7C31.66 20.21 32.62 21.02 33.53 21.26C33.42 22.02 32.69 22.33 32.12 22.68C28.65 24.52 25.12 26.26 21.67 28.14C21.75 28.6 21.9 29.51 21.98 29.97C22.01 30.21 22.06 30.69 22.08 30.92C19.05 32.69 15.97 34.43 12.79 35.9C11.08 35 10.15 33.04 8.4 32.11C8.22 31.93 7.83 31.55 7.64 31.36C9.98 28.9 13.46 28.21 16.17 26.28C17.07 25.85 17.95 26.12 18.8 26.51C19.78 26.44 20.56 25.77 21.41 25.37C24.51 23.82 27.61 22.29 30.69 20.7z"
  />
  <path style="fill:#c3c3c3"
        d="M30.96 38.42C35.38 36.27 39.35 33.3 43.7 31.04C45.33 30.49 46.37 32.13 47.45 33.03C40.67 37.39 33.95 41.86 26.9 45.76C26.17 46.17 25.47 46.7 25.06 47.46C25.33 48.17 25.36 48.85 25.17 49.48C22.99 47.36 21 45.04 18.87 42.87C21.97 41.09 24.98 39.16 28.15 37.5C29.18 36.87 30.1 37.98 30.96 38.42z"
  />
  <path style="fill:#838383"
        d="M25.47 31.46C29.58 29.31 33.59 26.96 37.72 24.86C38.21 25.15 38.71 25.45 39.2 25.75C39.37 25.93 39.71 26.29 39.88 26.47C39.53 26.69 39.18 26.9 38.84 27.12C38.78 26.84 38.67 26.28 38.61 26C36.52 26.22 34.84 27.58 33.02 28.5C30.63 29.75 28.33 31.2 25.91 32.38C24.75 32.98 23.65 32.13 22.73 31.49C19.31 32.69 16.36 34.89 13.04 36.32C13.21 36.77 13.38 37.23 13.57 37.68C11.56 36.12 9.9 34.15 8.4 32.11C10.15 33.04 11.08 35 12.79 35.9C15.97 34.43 19.05 32.69 22.08 30.92C22.06 30.69 22.01 30.21 21.98 29.97L22.15 29.57C23.04 30.4 24.02 32.25 25.47 31.46z"
  />
  <path style="fill:#2d2d2d"
        d="M53.63 29.95C56.6 28.33 59.4 26.38 62.24 24.55L62.75 25.15C51.39 32.43 40.04 39.72 28.68 47.02C27.93 47.48 27.15 47.9 26.38 48.32C26.05 48.1 25.39 47.67 25.06 47.46C25.47 46.7 26.17 46.17 26.9 45.76C33.95 41.86 40.67 37.39 47.45 33.03C47.59 32.94 47.86 32.75 48 32.66C49.87 32.22 51.38 31.04 52.86 29.89C53.06 29.91 53.43 29.93 53.63 29.95z"
  />
  <path style="fill:#262626"
        d="M39.2 25.75C40.94 26.06 43.37 26.37 44.06 28.19C40.62 31.21 36.29 33.03 32.47 35.51C31.44 36.36 30.04 35.59 28.98 36.29C28.85 36.2 28.73 36.11 28.61 36.02C27.89 35.38 27.55 34.51 27.54 33.56C31.26 31.34 35.11 29.33 38.84 27.12C39.18 26.9 39.53 26.69 39.88 26.47C39.71 26.29 39.37 25.93 39.2 25.75z"
  />
  <path style="fill:#c6c6c6"
        d="M33.02 28.5C34.84 27.58 36.52 26.22 38.61 26C38.67 26.28 38.78 26.84 38.84 27.12C35.11 29.33 31.26 31.34 27.54 33.56C27.55 34.51 27.89 35.38 28.61 36.02C27.58 36.89 26.48 37.66 25.3 38.29C22.8 39.66 20.46 41.3 17.82 42.4C16.65 40.61 14.89 39.35 13.57 37.68C13.38 37.23 13.21 36.77 13.04 36.32C16.36 34.89 19.31 32.69 22.73 31.49C23.65 32.13 24.75 32.98 25.91 32.38C28.33 31.2 30.63 29.75 33.02 28.5z"
  />
  <path style="fill:#797979"
        d="M30.92 37.53C35.35 35 39.61 32.13 44.15 29.81C45.67 30.36 46.77 31.65 48 32.66C47.86 32.75 47.59 32.94 47.45 33.03C46.37 32.13 45.33 30.49 43.7 31.04C39.35 33.3 35.38 36.27 30.96 38.42C30.1 37.98 29.18 36.87 28.15 37.5C24.98 39.16 21.97 41.09 18.87 42.87C21 45.04 22.99 47.36 25.17 49.48L24.61 49.71L25.59 50.34C24.71 50.57 24.27 49.67 23.75 49.14C21.82 46.85 19.65 44.77 17.82 42.4C20.46 41.3 22.8 39.66 25.3 38.29C26.48 37.66 27.58 36.89 28.61 36.02C28.73 36.11 28.85 36.2 28.98 36.29C29.62 36.72 30.26 37.13 30.92 37.53z"
  />
 </g>
</svg>
