<?xml version="1.0" encoding="UTF-8" standalone="no"?>
<!-- Created with Inkscape (http://www.inkscape.org/) -->

<svg
   xmlns:svg="http://www.w3.org/2000/svg"
   xmlns="http://www.w3.org/2000/svg"
   version="1.1"
   width="64"
   height="64">
  <g
     id="layer1">
    <path
       d="m 24.5,54.27054 c -2.31545,-2.33333 -4.63091,-4.66667 -6.94636,-7 3.48212,0 6.96424,0 10.44636,0 0,-3.66667 0,-7.33333 0,-11 -3.66667,0 -7.33333,0 -11,0 0,3.49425 0,6.98851 0,10.48276 C 12.17241,41.92571 7.34483,37.09813 2.51724,32.27054 7.34483,27.44295 12.17241,22.61537 17,17.78778 c 0,3.49425 0,6.98851 0,10.48276 3.66667,0 7.33333,0 11,0 0,-3.66667 0,-7.33333 0,-11 -3.18574,-0.0994 -6.43787,0.29383 -9.56165,-0.45879 0.22985,-1.9228 3.42243,-3.75147 4.82482,-5.54415 2.92507,-2.81453 5.88129,-5.59646 8.82138,-8.39527 4.7994,4.7994 9.59881,9.59881 14.39821,14.39821 -3.49425,0 -6.98851,0 -10.48276,0 0,3.66667 0,7.33333 0,11 3.66667,0 7.33333,0 11,0 0,-3.49425 0,-6.98851 0,-10.48276 4.82759,4.82759 9.65517,9.65517 14.48276,14.48276 C 56.65517,37.09813 51.82759,41.92571 47,46.7533 c 0,-3.49425 0,-6.98851 0,-10.48276 -3.66667,0 -7.33333,0 -11,0 0,3.66667 0,7.33333 0,11 3.48212,0 6.96424,0 10.44636,0 C 41.74379,51.9173 37.26107,56.80436 32.25299,61.12767 30.01156,60.29441 28.21686,57.6496 26.24822,56.01461 25.66248,55.43627 25.07982,54.85482 24.5,54.27054 z m 12.5,-0.5 c 1.47214,-1.5 2.94428,-3 4.41642,-4.5 -2.47214,0 -4.94428,0 -7.41642,0 0,-5 0,-10 0,-15 5,0 10,0 15,0 0,2.49123 0,4.98245 0,7.47368 3.09376,-3.09376 6.18752,-6.18752 9.28129,-9.28128 -2.9271,-3.47965 -5.8542,-6.9593 -8.78129,-10.43896 -0.205,2.74885 -0.41,5.49771 -0.615,8.24656 -4.96167,0 -9.92333,0 -14.885,0 0,-5 0,-10 0,-15 2.8254,0 5.65079,0 8.47619,0 C 38.98412,11.77848 35.49206,8.28642 32,4.79435 c -3.49206,3.49207 -6.98412,6.98413 -10.47619,10.47619 2.8254,0 5.65079,0 8.47619,0 0,5 0,10 0,15 -5,0 -10,0 -15,0 0,-2.49123 0,-4.98245 0,-7.47368 -3.15789,3.15789 -6.31579,6.31579 -9.47368,9.47368 3.15789,3.15789 6.31579,6.31579 9.47368,9.47368 0,-2.49123 0,-4.98245 0,-7.47368 5,0 10,0 15,0 0,5 0,10 0,15 -2.47214,0 -4.94428,0 -7.41642,0 3.10467,3.0299 5.91979,6.42585 9.41642,9 1.87704,-1.21678 3.38974,-2.95728 5,-4.5 z"
       id="path2996"
       style="fill:#000000" />
  </g>
</svg>
